# xmcd
#
# Track frame offsets: 
#        150
#        17075
#        31517
#        43545
#        56865
#        68740
#        81970
#        94607
#        106627
#        119127
#        134295
#        145227
#        158520
#        173292
#        186217
#        199552
#        212355
#        225127
#        236055
#        249505
#        261487
#        275347
#        289555
#        307787
#        325492
#        338220
#
# Disc length: 4692 seconds
#
# Revision: 2
# Processed by: cddbd v1.5.2PL0 Copyright (c) Steve Scherf et al.
# Submitted via: ExactAudioCopyFreeDBPlugin 1.0
#
DISCID=5b12521a
DTITLE=Various Artist - The Complete Stax-Volt Singles, 1959-1975
DYEAR=1993
DGENRE=Soul
TTITLE0=The Staple Singers - The Ghetto
TTITLE1=Albert King - Blues Power
TTITLE2=The Epsilons - The Echo
TTITLE3=Rufus Thomas - Funky Way
TTITLE4=Johnnie Taylor - Take Care of Your Homework
TTITLE5=Carla Thomas - I Like What You're Doing (To Me)
TTITLE6=Eddie Floyd - I've Got to Have Your Love
TTITLE7=Jimmy Hughes - Let 'Em Down Baby
TTITLE8=The Mad Lads - Love is Here Today and Gone Tomorrow
TTITLE9=Judy Clay - It Ain't Long Enough
TTITLE10=Ollie and The Nightingales - Mellow Way You Treat Your Man
TTITLE11=Sonny Stitt - Private Number
TTITLE12=Booker T. and the M.G.'s - Time is Tight
TTITLE13=The Mar-Keys - Double or Nothing
TTITLE14=The Staple Singers - (Sittin' On) The Dock of the Bay
TTITLE15=The Emotions - So I Can Love You
TTITLE16=The Bar-Kays - Don't Stop Dancing (To The Music) (Part 1)
TTITLE17=Margie Joseph - One More Chance
TTITLE18=Jimmy Dotson - I Wanna Be Good (To You)
TTITLE19=Art Jerry Miller - Finger Lickin' Good
TTITLE20=The Soul Children - Tighten Up My Thang
TTITLE21=William Bell - My Whole World is Falling Down
TTITLE22=Johnnie Taylor - Testify (I Wonna)
TTITLE23=Albert King - Drowning on Dry Land
TTITLE24=The Stingers - Do the Cissy
TTITLE25=Eddie Floyd - Don't Tell Your Mama (Where You've Been)
EXTD=
EXTT0=
EXTT1=
EXTT2=
EXTT3=
EXTT4=
EXTT5=
EXTT6=
EXTT7=
EXTT8=
EXTT9=
EXTT10=
EXTT11=
EXTT12=
EXTT13=
EXTT14=
EXTT15=
EXTT16=
EXTT17=
EXTT18=
EXTT19=
EXTT20=
EXTT21=
EXTT22=
EXTT23=
EXTT24=
EXTT25=
PLAYORDER=
